<svg width="118" height="102" viewBox="0 0 118 102" fill="none" xmlns="http://www.w3.org/2000/svg">
<path d="M106.634 72.3802C103.704 71.349 100.5 71.4141 97.6141 72.5634C101.22 65.4092 105.335 54.0082 99.1937 47.6381C96.83 45.1885 93.6134 44.0381 89.8818 44.3129C84.5877 44.7078 78.7785 47.9586 74.7149 51.7017C76.2602 46.3618 77.7941 40.8273 75.7222 35.104C74.6805 32.2022 72.0821 29.7984 68.4135 28.3332C64.0294 26.5876 59.0386 26.5533 55.6961 28.2474C50.2876 30.9774 46.4758 39.2076 44.2494 45.6292C42.6472 50.124 41.4613 54.7565 40.7067 59.4683C39.6822 57.488 38.4173 56.475 36.9292 55.2502C35.2122 53.8251 30.5191 53.6591 28.3099 54.5691C23.1588 56.6925 20.5833 64.5449 20.1655 68.992C19.6619 74.309 20.1655 84.2676 23.6797 89.9109C27.2625 95.6972 34.9719 99.0683 40.4892 100.213C45.4971 101.255 51.9359 101.609 56.8294 101.609C57.7737 101.609 58.6666 101.609 59.4793 101.575C63.5772 101.449 66.9197 101.318 69.9473 101.146C82.8707 100.419 92.7721 98.908 102.055 96.2467C102.88 96.012 103.772 95.7945 104.66 95.5656C110.308 94.1519 117.337 92.3891 117.165 84.508C117.073 79.0422 113.216 74.6181 106.634 72.3802Z" fill="white"/>
<path d="M37.4677 26.7723C37.2579 22.9753 34.5011 19.8803 30.4429 18.8872C26.3163 17.8769 23.0115 18.8872 20.0407 22.1234C17.4123 24.9701 16.676 29.3494 18.2856 32.5385C19.6169 35.0352 21.91 36.8799 24.6339 37.6455C25.6239 37.944 26.6521 38.0969 27.6861 38.0992C29.2575 38.1159 30.8058 37.7203 32.1766 36.952C35.9394 34.7774 37.7202 31.3527 37.4677 26.7723Z" fill="#EFC456"/>
<path d="M30.0363 9.43102C29.9794 9.43714 29.922 9.43714 29.8651 9.43102C29.6425 9.38565 29.4471 9.25371 29.3219 9.06424C29.1966 8.87476 29.1518 8.64329 29.1973 8.42076L30.6356 1.3361C30.6757 1.01757 30.8906 0.74824 31.1923 0.63847C31.494 0.528701 31.8318 0.596942 32.0672 0.815232C32.3026 1.03352 32.3961 1.36517 32.3094 1.67428L30.8753 8.76322C30.7869 9.15509 30.438 9.43283 30.0363 9.43102Z" fill="#EFC456"/>
<path d="M43.6877 17.0892C43.323 17.0894 42.9982 16.8585 42.8785 16.514C42.7588 16.1695 42.8706 15.7869 43.1569 15.561L47.6945 11.9652C47.9346 11.7748 48.258 11.7269 48.543 11.8396C48.8279 11.9524 49.0311 12.2086 49.076 12.5117C49.1208 12.8149 49.0005 13.1189 48.7604 13.3093L44.2185 16.9052C44.0673 17.0245 43.8803 17.0893 43.6877 17.0892Z" fill="#EFC456"/>
<path d="M11.8088 13.6561C11.557 13.6574 11.3175 13.5478 11.1538 13.3565L8.5597 10.3128C8.31872 9.95395 8.38309 9.47172 8.70977 9.1886C9.03645 8.90548 9.52293 8.9103 9.84393 9.19985L12.4424 12.2435C12.5895 12.4166 12.6617 12.641 12.6433 12.8675C12.6248 13.0939 12.5171 13.3037 12.3439 13.4506C12.1944 13.5786 12.0055 13.6511 11.8088 13.6561Z" fill="#EFC456"/>
<path d="M5.78573 26.2715C5.73731 26.2757 5.68861 26.2757 5.64019 26.2715L0.905664 25.4582C0.438735 25.379 0.124418 24.9363 0.203619 24.4693C0.28282 24.0024 0.725546 23.6881 1.19248 23.7673L5.93128 24.5806C6.40412 24.6208 6.75485 25.0367 6.71466 25.5095C6.67447 25.9824 6.25857 26.3331 5.78573 26.2929V26.2715Z" fill="#EFC456"/>
<path d="M5.55036 45.6719C5.1871 45.6716 4.86357 45.4421 4.74322 45.0994C4.62288 44.7566 4.73192 44.3753 5.01526 44.1479L8.97925 40.9716C9.21671 40.7689 9.54572 40.7115 9.83782 40.8218C10.1299 40.9322 10.3388 41.1928 10.3828 41.502C10.4268 41.8111 10.2991 42.1197 10.0494 42.3072L6.08545 45.4793C5.93425 45.6026 5.74546 45.6705 5.55036 45.6719Z" fill="#EFC456"/>
<path d="M19.9807 53.5828C19.874 53.5831 19.7681 53.5643 19.6682 53.5272C19.4563 53.4449 19.2859 53.2819 19.1944 53.0739C19.1028 52.866 19.0977 52.6302 19.1801 52.4185L20.8282 48.1848C20.9391 47.8995 21.1937 47.6951 21.4962 47.6486C21.7987 47.602 22.103 47.7203 22.2946 47.9589C22.4861 48.1975 22.5358 48.5203 22.425 48.8055L20.7769 53.0392C20.6484 53.3668 20.3326 53.5825 19.9807 53.5828Z" fill="#EFC456"/>
</svg>
