<svg width="4" height="15" viewBox="0 0 4 15" fill="none" xmlns="http://www.w3.org/2000/svg">
<path d="M2 8.46875C2.39695 8.46875 2.71875 8.14695 2.71875 7.75C2.71875 7.35305 2.39695 7.03125 2 7.03125C1.60305 7.03125 1.28125 7.35305 1.28125 7.75C1.28125 8.14695 1.60305 8.46875 2 8.46875Z" fill="#8656EF" stroke="#8656EF" stroke-width="2.2" stroke-linecap="round" stroke-linejoin="round"/>
<path d="M2 3.4375C2.39695 3.4375 2.71875 3.1157 2.71875 2.71875C2.71875 2.3218 2.39695 2 2 2C1.60305 2 1.28125 2.3218 1.28125 2.71875C1.28125 3.1157 1.60305 3.4375 2 3.4375Z" fill="#8656EF" stroke="#8656EF" stroke-width="2.2" stroke-linecap="round" stroke-linejoin="round"/>
<path d="M2 13.5C2.39695 13.5 2.71875 13.1782 2.71875 12.7812C2.71875 12.3843 2.39695 12.0625 2 12.0625C1.60305 12.0625 1.28125 12.3843 1.28125 12.7812C1.28125 13.1782 1.60305 13.5 2 13.5Z" fill="#8656EF" stroke="#8656EF" stroke-width="2.2" stroke-linecap="round" stroke-linejoin="round"/>
</svg>
